<svg width="25" height="14" viewBox="0 0 25 14" fill="none" xmlns="http://www.w3.org/2000/svg">
<path fill-rule="evenodd" clip-rule="evenodd" d="M10.9799 1.42507L0.988993 10.3848C0.542909 10.7816 0.291992 11.3217 0.291992 11.8852C0.291992 12.4486 0.542909 12.9887 0.988993 13.3855C1.90805 14.2048 3.39237 14.2048 4.31143 13.3855L12.6529 5.90495L20.9943 13.3855C21.9134 14.2048 23.3977 14.2048 24.3167 13.3855C24.7578 12.9867 25.0037 12.4469 25.0001 11.8852C25.0037 11.3235 24.7578 10.7836 24.3167 10.3848L14.3259 1.42507C13.8834 1.02502 13.2812 0.799999 12.6529 0.799999C12.0246 0.799999 11.4223 1.02502 10.9799 1.42507Z" fill="#7981AD"/>
</svg>
