<svg width="25" height="25" viewBox="0 0 25 25" fill="none" xmlns="http://www.w3.org/2000/svg">
<path fill-rule="evenodd" clip-rule="evenodd" d="M16.3868 12.7412C18.4014 11.1562 19.1901 8.46851 18.3515 6.0462C17.5128 3.62388 15.2311 1.99927 12.6677 1.99927C10.1043 1.99927 7.82257 3.62388 6.98389 6.0462C6.14522 8.46851 6.93391 11.1562 8.94852 12.7412C5.51717 14.1159 3.12079 17.2675 2.71317 20.9414C2.65226 21.4951 3.05171 21.9932 3.60536 22.0541C4.15901 22.115 4.6572 21.7156 4.7181 21.1619C5.17386 17.1047 8.60496 14.0374 12.6877 14.0374C16.7705 14.0374 20.2016 17.1047 20.6574 21.1619C20.7138 21.6721 21.1465 22.0573 21.6598 22.0541H21.7701C22.3171 21.9912 22.7109 21.4989 22.6523 20.9514C22.2427 17.2667 19.8328 14.1088 16.3868 12.7412ZM12.6661 12.0293C10.4515 12.0293 8.65625 10.234 8.65625 8.0194C8.65625 5.8048 10.4515 4.00952 12.6661 4.00952C14.8807 4.00952 16.676 5.8048 16.676 8.0194C16.676 9.08288 16.2535 10.1028 15.5015 10.8548C14.7495 11.6068 13.7296 12.0293 12.6661 12.0293Z" fill="#272525"/>
</svg>
