<svg width="16" height="16" viewBox="0 0 16 16" fill="none" xmlns="http://www.w3.org/2000/svg">
<path fill-rule="evenodd" clip-rule="evenodd" d="M11.9144 9.5075C13.3842 7.61976 13.2515 4.88864 11.5161 3.15325C9.63695 1.27411 6.59026 1.27411 4.71112 3.15325C2.83197 5.0324 2.83197 8.07909 4.71112 9.95824C6.4465 11.6936 9.17762 11.8264 11.0654 10.3565C11.0735 10.3657 11.082 10.3747 11.0908 10.3835L13.6427 12.9354C13.8775 13.1703 14.2584 13.1703 14.4933 12.9354C14.7282 12.7005 14.7282 12.3197 14.4933 12.0848L11.9414 9.53292C11.9326 9.52412 11.9236 9.51564 11.9144 9.5075ZM10.6655 4.00388C12.0748 5.41323 12.0748 7.69826 10.6655 9.10761C9.25612 10.517 6.9711 10.517 5.56174 9.10761C4.15238 7.69826 4.15238 5.41323 5.56174 4.00388C6.9711 2.59452 9.25612 2.59452 10.6655 4.00388Z" fill="#8E8E8E"/>
</svg>
