<svg width="25" height="14" viewBox="0 0 25 14" fill="none" xmlns="http://www.w3.org/2000/svg">
<path fill-rule="evenodd" clip-rule="evenodd" d="M10.9814 13.375L0.991832 4.41522C0.545806 4.01844 0.294922 3.47832 0.294922 2.91488C0.294922 2.35143 0.545806 1.81132 0.991832 1.41454C1.91077 0.595219 3.3949 0.595219 4.31384 1.41454L12.6542 8.8951L20.9945 1.41454C21.9135 0.595219 23.3976 0.595219 24.3166 1.41454C24.7576 1.81333 25.0034 2.35319 24.9998 2.91488C25.0034 3.47656 24.7576 4.01642 24.3166 4.41521L14.327 13.375C13.8846 13.775 13.2824 14 12.6542 14C12.026 14 11.4238 13.775 10.9814 13.375Z" fill="#7981AD"/>
</svg>
