<svg width="18" height="18" viewBox="0 0 18 18" fill="none" xmlns="http://www.w3.org/2000/svg">
<path fill-rule="evenodd" clip-rule="evenodd" d="M16.9593 5.28722L12.7518 1.04222C12.6102 0.90183 12.4186 0.823567 12.2193 0.82472C12.0225 0.825548 11.834 0.903661 11.6943 1.04222L1.04427 11.6547C0.753474 11.9472 0.753474 12.4197 1.04427 12.7122L5.28927 16.9572C5.43081 17.0976 5.62241 17.1759 5.82177 17.1747C6.01852 17.1739 6.20707 17.0958 6.34677 16.9572L8.46927 14.8347L14.8368 8.46722L16.9593 6.34472C17.2501 6.05219 17.2501 5.57975 16.9593 5.28722ZM14.3028 6.87732L13.7703 6.34482C13.4778 6.05403 13.0053 6.05403 12.7128 6.34482C12.5708 6.48565 12.491 6.67735 12.491 6.87732C12.491 7.0773 12.5708 7.269 12.7128 7.40982L13.2453 7.94232L12.1803 8.99982L10.5903 7.40982C10.2927 7.15499 9.84917 7.17212 9.57214 7.44915C9.29511 7.72618 9.27798 8.16975 9.53281 8.46732L11.1228 10.0573L10.0578 11.1223L9.53281 10.5898C9.23872 10.2957 8.7619 10.2957 8.46781 10.5898C8.17372 10.8839 8.17372 11.3607 8.46781 11.6548L9.00031 12.1798L7.94281 13.2448L6.34531 11.6548C6.05278 11.364 5.58034 11.364 5.28781 11.6548C4.99702 11.9474 4.99702 12.4198 5.28781 12.7123L6.87781 14.3023L5.82031 15.3673L2.63281 12.1798L12.1803 2.63232L15.3678 5.81982L14.3028 6.87732Z" fill="#524983"/>
</svg>
